# Blender v2.82 (sub 7) OBJ File: ''
# www.blender.org
mtllib Hexstar.mtl
o Hexstar
v -0.010102 0.000000 0.000000
v -0.005051 -0.000000 0.008749
v 0.005051 -0.000000 0.008749
v 0.017361 -0.000000 0.010023
v 0.010102 0.000000 0.000000
v 0.017361 0.000000 -0.010023
v 0.005051 0.000000 -0.008748
v 0.000000 0.000000 -0.020047
v -0.005051 0.000000 -0.008748
v -0.017361 0.000000 -0.010023
v -0.017361 -0.000000 0.010023
v 0.000000 -0.000000 0.020047
vt 0.000000 0.000000
vt 0.000000 0.000000
vt 0.000000 0.000000
vt 0.000000 0.000000
vt 0.000000 0.000000
vt 0.000000 0.000000
vt 0.000000 0.000000
vt 0.000000 0.000000
vt 0.000000 0.000000
vt 0.000000 0.000000
vt 0.000000 0.000000
vt 0.000000 0.000000
vn 0.0000 1.0000 0.0000
g Hexstar_Hexstar_Hexstar.002
usemtl Hexstar.002
s 1
f 1/1/1 2/2/1 3/3/1
f 3/3/1 4/4/1 5/5/1
f 5/5/1 6/6/1 7/7/1
f 7/7/1 8/8/1 9/9/1
f 9/9/1 10/10/1 1/1/1
f 1/1/1 11/11/1 2/2/1
f 2/2/1 12/12/1 3/3/1
f 3/3/1 5/5/1 1/1/1
f 5/5/1 7/7/1 1/1/1
f 7/7/1 9/9/1 1/1/1
